<svg width="18" height="13" viewBox="0 0 18 13" fill="none" xmlns="http://www.w3.org/2000/svg">
<path d="M8.85711 0.182373C3.65515 0.182373 0.570984 6.35071 0.570984 6.35071C0.570984 6.35071 3.65515 12.519 8.85711 12.519C13.9357 12.519 17.0199 6.35071 17.0199 6.35071C17.0199 6.35071 13.9357 0.182373 8.85711 0.182373ZM8.79543 2.23848C11.0777 2.23848 12.9076 4.08898 12.9076 6.35071C12.9076 8.63299 11.0777 10.4629 8.79543 10.4629C6.5337 10.4629 4.68321 8.63299 4.68321 6.35071C4.68321 4.08898 6.5337 2.23848 8.79543 2.23848ZM8.79543 4.29459C7.66457 4.29459 6.73932 5.21984 6.73932 6.35071C6.73932 7.48157 7.66457 8.40682 8.79543 8.40682C9.92629 8.40682 10.8515 7.48157 10.8515 6.35071C10.8515 6.14509 10.7693 5.96004 10.7282 5.77499C10.5637 6.10397 10.2347 6.35071 9.82348 6.35071C9.24777 6.35071 8.79543 5.89836 8.79543 5.32265C8.79543 4.91143 9.04216 4.58245 9.37114 4.41796C9.18609 4.35628 9.00104 4.29459 8.79543 4.29459Z" fill="#0000AF"/>
</svg>
